<?xml version="1.0" encoding="UTF-8" standalone="no"?>
<svg
   viewBox="0 0 100 100"
   version="1.1"
   id="svg1"
   sodipodi:docname="favicon.svg"
   inkscape:version="1.4.2 (ebf0e940d0, 2025-05-08)"
   xmlns:inkscape="http://www.inkscape.org/namespaces/inkscape"
   xmlns:sodipodi="http://sodipodi.sourceforge.net/DTD/sodipodi-0.dtd"
   xmlns="http://www.w3.org/2000/svg"
   xmlns:svg="http://www.w3.org/2000/svg">
  <defs
     id="defs1" />
  <sodipodi:namedview
     id="namedview1"
     pagecolor="#505050"
     bordercolor="#eeeeee"
     borderopacity="1"
     inkscape:showpageshadow="0"
     inkscape:pageopacity="0"
     inkscape:pagecheckerboard="0"
     inkscape:deskcolor="#505050"
     inkscape:zoom="6.5760931"
     inkscape:cx="-46.304089"
     inkscape:cy="36.343768"
     inkscape:window-width="3840"
     inkscape:window-height="2084"
     inkscape:window-x="0"
     inkscape:window-y="0"
     inkscape:window-maximized="1"
     inkscape:current-layer="svg1" />
  <!-- Background circle -->
  <circle
     cx="50"
     cy="50"
     r="48"
     fill="#f4e8d0"
     stroke="#2c1810"
     stroke-width="3"
     id="circle1"
     style="stroke:#000000" />
  <!-- D20 die silhouette -->
  <path
     style="fill:#000000;stroke-width:0.152653"
     d="M 75.817864,84.61691 C 74.722932,84.067418 74.004414,82.470068 73.776213,80.078086 73.6753,79.020339 73.319865,77.010023 72.986357,75.610706 72.652848,74.211376 71.63576,69.265413 70.726163,64.619681 69.816565,59.973936 68.805025,55.048175 68.478296,53.673558 67.794849,50.798139 67.18562,47.295815 66.859534,44.367706 66.57254,41.790475 66.091916,38.69529 65.822132,37.686802 65.6441,37.021274 65.569002,36.945771 65.303918,37.165775 c -0.170519,0.14152 -0.589847,0.81233 -0.931869,1.490701 -0.342011,0.678371 -1.372802,2.424091 -2.290629,3.879385 -3.159412,5.0095 -5.311297,9.327692 -7.126061,14.299863 -0.419068,1.148193 -1.018767,2.442155 -1.332658,2.875478 -0.626655,0.865067 -2.98291,2.416803 -3.240992,2.134389 -1.651997,-1.807785 -4.118664,-4.726232 -4.794565,-5.672713 -0.47965,-0.671676 -1.811834,-2.869888 -2.960394,-4.884905 -1.14856,-2.015017 -2.69797,-4.579595 -3.443131,-5.699052 -0.745149,-1.119456 -1.688009,-2.589623 -2.09523,-3.267033 -0.794409,-1.321524 -1.491546,-2.073677 -1.714931,-1.85029 -0.07596,0.07608 -0.208097,1.212739 -0.293499,2.526013 -0.08534,1.313276 -0.29915,3.166308 -0.475021,4.117845 -1.012143,5.476368 -3.440127,24.413001 -4.175472,32.565996 -0.315897,3.502323 -0.267315,3.381847 -1.643677,4.076633 -0.65888,0.332599 -1.408682,0.604721 -1.666228,0.604721 -0.638252,0 -1.873176,-1.058341 -2.517172,-2.157251 -0.614299,-1.048228 -0.614109,-1.051704 0.336561,-5.882473 0.745269,-3.787087 1.379887,-9.054264 2.46459,-20.455513 0.727131,-7.642852 0.849376,-9.66124 0.893709,-14.756463 0.08179,-9.403027 0.775025,-13.071965 3.749413,-19.844906 4.107222,-9.352499 7.86448,-13.6807674 13.51628,-15.570406 2.02006,-0.6753794 6.821202,-1.3994005 8.066073,-1.2163593 0.92559,0.1360846 5.970248,2.626918 7.732977,3.8181973 1.457004,0.9846764 5.338169,4.988276 6.455268,6.658909 2.012597,3.009855 3.49641,6.62031 4.379222,10.655638 0.400071,1.828723 0.450902,2.637007 0.443497,7.052114 -0.0046,2.742671 -0.09861,5.255449 -0.208902,5.58394 -0.121388,0.361548 -0.135167,1.124692 -0.0349,1.933604 0.5049,4.073691 1.296142,8.628787 1.982228,11.411445 0.427814,1.735156 1.021458,4.528711 1.319206,6.20789 0.822591,4.639087 2.012725,10.459315 3.246353,15.875918 1.340068,5.883992 1.460391,6.724739 1.14847,8.024969 -0.28166,1.174092 -1.402557,2.585719 -2.376216,2.992538 -0.859037,0.358935 -1.043379,0.351386 -1.898346,-0.07763 z M 52.259573,49.507024 c 0.94521,-1.81912 2.524531,-4.681365 3.509599,-6.360544 0.985069,-1.679191 2.828405,-4.910556 4.096303,-7.180827 1.267909,-2.270273 2.660294,-4.651668 3.094199,-5.291974 0.433904,-0.640316 0.995064,-1.576376 1.247031,-2.080133 0.251968,-0.503757 0.69513,-1.168811 0.984819,-1.477918 0.518381,-0.55311 0.522596,-0.58206 0.266033,-1.831833 -0.351019,-1.709968 -1.428374,-4.537827 -2.279198,-5.982522 -0.382509,-0.649469 -1.290805,-1.778243 -2.018459,-2.508376 -1.188893,-1.192964 -4.433231,-3.798589 -5.906117,-4.743395 -0.969852,-0.622122 -3.344243,-1.0071 -5.62324,-0.91174 -2.760891,0.115491 -3.788773,0.616198 -6.353708,3.094841 -2.166508,2.09363 -2.944536,3.12385 -3.268943,4.328636 -0.144525,0.53672 -0.647023,1.304125 -1.393645,2.128348 -1.285547,1.419164 -2.00494,2.842281 -2.758539,5.457032 l -0.497336,1.7256 0.637634,0.745066 c 0.350699,0.409798 1.361655,2.106259 2.246569,3.769924 2.952405,5.550611 4.424471,8.08262 7.024457,12.082256 1.419033,2.182948 3.17115,4.951552 3.893605,6.152471 0.722454,1.200917 1.328587,2.185523 1.346961,2.188027 0.01839,0.0024 0.806764,-1.483829 1.751975,-3.302939 z"
     id="path1" />
</svg>
